<svg width="24" height="24" viewBox="0 0 24 24" fill="none" xmlns="http://www.w3.org/2000/svg">
    <path d="M19.5 5.46427H5M18.756 8.25273L18.243 15.9489C18.0455 18.9091 17.9474 20.3892 16.9826 21.2916C16.0178 22.1939 15.6486 22.195 12.6817 22.195H11.8183C8.85142 22.195 8.48223 22.195 7.51742 21.2916C6.55262 20.3892 6.45335 18.9091 6.25704 15.9489C6.06073 12.9887 5.94433 11.2583 5.74396 8.25273M9.09346 3.2335C9.3239 2.58041 9.75125 2.01487 10.3166 1.61484C10.8819 1.21482 11.5574 1 12.25 1C12.9426 1 13.6181 1.21482 14.1834 1.61484C14.7488 2.01487 15.1761 2.58041 15.4065 3.2335" stroke="black" stroke-width="1.67308" stroke-linecap="round"/>
</svg>
