<svg width="24" height="24" viewBox="0 0 24 24" fill="none" xmlns="http://www.w3.org/2000/svg">
    <path d="M3 22.1254H20M4.77012 13.824C4.31709 14.2781 4.06261 14.8933 4.0625 15.5347V18.9379H7.48694C8.12869 18.9379 8.74388 18.6829 9.19756 18.2281L19.2913 8.12904C19.7442 7.67493 19.9985 7.05976 19.9985 6.41842C19.9985 5.77708 19.7442 5.16191 19.2913 4.70779L18.2947 3.70904C18.0699 3.48417 17.803 3.3058 17.5093 3.18414C17.2156 3.06247 16.9007 2.9999 16.5828 3C16.2648 3.0001 15.95 3.06287 15.6564 3.18471C15.3627 3.30656 15.0959 3.48509 14.8713 3.71011L4.77012 13.824Z" stroke="black" stroke-width="1.59375" stroke-linecap="round" stroke-linejoin="round"/>
</svg>
