<svg width="24" height="24" viewBox="0 0 24 24" fill="none" xmlns="http://www.w3.org/2000/svg">
    <path d="M12.9488 2.55593C12.8543 2.38731 12.7165 2.24693 12.5497 2.14922C12.383 2.05151 12.1932 2 11.9999 2C11.8066 2 11.6168 2.05151 11.45 2.14922C11.2832 2.24693 11.1455 2.38731 11.051 2.55593C10.1211 4.2422 9.35567 6.01409 8.7654 7.84708C8.61095 8.32597 8.15317 8.6582 7.62872 8.67264C6.03895 8.71443 4.45435 8.87226 2.88757 9.14487C2.02757 9.29598 1.70423 10.276 2.31535 10.8738C3.50061 12.0333 4.76677 13.1071 6.10426 14.0871C6.51205 14.386 6.67983 14.8982 6.52427 15.3671C5.9317 17.1483 5.50761 18.9812 5.25759 20.8416C5.14648 21.6805 6.04426 22.2727 6.82427 21.8727C8.37099 21.0797 9.85004 20.161 11.2465 19.1261C11.4653 18.9664 11.7291 18.8804 11.9999 18.8804C12.2707 18.8804 12.5345 18.9664 12.7532 19.1261C14.1494 20.1614 15.6285 21.0801 17.1755 21.8727C17.9544 22.2727 18.8533 21.6805 18.7421 20.8416C18.4922 18.9808 18.0681 17.1476 17.4755 15.366C17.3199 14.8994 17.4866 14.386 17.8955 14.0871C19.233 13.1071 20.4991 12.0333 21.6844 10.8738C22.2955 10.276 21.9733 9.29598 21.1122 9.14487C19.5456 8.87067 17.9609 8.71283 16.371 8.67264C16.1196 8.66864 15.8756 8.58722 15.6722 8.43949C15.4688 8.29175 15.3159 8.08488 15.2343 7.84708C14.644 6.01448 13.8786 4.24185 12.9488 2.55593Z" stroke="black" stroke-width="1.66668" stroke-linecap="round" stroke-linejoin="round"/>
</svg>
